<svg xmlns="http://www.w3.org/2000/svg" viewBox="0 0 650.5 650.5"><defs><style>.cls-1{fill:#1d1d1b;}.cls-2{fill:#fff;}</style></defs><g id="Ebene_2" data-name="Ebene 2"><g id="Ebene_1-2" data-name="Ebene 1"><rect class="cls-1" width="650.5" height="650.5"/><path class="cls-2" d="M470.24,501.51l-7.39-8.63a23.14,23.14,0,0,1-1,2.13,10.35,10.35,0,0,1-4.31,5.06A13.28,13.28,0,0,1,450.4,502a16.26,16.26,0,0,1-8-1.91,13.36,13.36,0,0,1-5.31-5.23,15.34,15.34,0,0,1-1.84-7.57,15.79,15.79,0,0,1,1.61-7.32,12.06,12.06,0,0,1,10.57-6.77l-.83-1.23a18.63,18.63,0,0,1-2.12-3.8,11.22,11.22,0,0,1-.75-4.2,10.5,10.5,0,0,1,1.54-5.51,11.15,11.15,0,0,1,4.58-4.14,15.69,15.69,0,0,1,7.29-1.57q6.09,0,9.41,2.73a12.35,12.35,0,0,1,4.27,7.05,13.67,13.67,0,0,1,.69,4.38l-.07,1.3h-9a12.89,12.89,0,0,0-.14-2.33,5.46,5.46,0,0,0-1.37-3.8,4.8,4.8,0,0,0-3.62-1.33A4.54,4.54,0,0,0,454,462a4.1,4.1,0,0,0-1.23,3,5.8,5.8,0,0,0,.62,2.74,17.15,17.15,0,0,0,2.05,2.87L480,501.51Zm-14.95-9.41a6.24,6.24,0,0,0,1.88-4.69,6.49,6.49,0,0,0-2.16-5,7.22,7.22,0,0,0-5.09-2,6.51,6.51,0,0,0-4.62,1.71,6.35,6.35,0,0,0-1.81,4.86,6.57,6.57,0,0,0,2,5,7,7,0,0,0,5,1.88A6.68,6.68,0,0,0,455.29,492.1Z"/><path class="cls-2" d="M526.61,466.79A18.37,18.37,0,0,1,533,478.24H518.74a5.55,5.55,0,0,0-1.74-3,4.89,4.89,0,0,0-3.25-1.06,4.75,4.75,0,0,0-4,2.09,10.06,10.06,0,0,0-1.54,6q0,4,1.54,6.09a4.76,4.76,0,0,0,4,2.05,4.89,4.89,0,0,0,3.25-1.06,5.51,5.51,0,0,0,1.74-3H533a18.52,18.52,0,0,1-6.36,11.49A19.05,19.05,0,0,1,514.09,502a21.14,21.14,0,0,1-10.16-2.36,16.73,16.73,0,0,1-6.88-6.84,23.57,23.57,0,0,1,0-21A16.76,16.76,0,0,1,504,465a21.21,21.21,0,0,1,10.13-2.37A19.15,19.15,0,0,1,526.61,466.79Z"/><path class="cls-2" d="M566.34,465a17.38,17.38,0,0,1,7.15,6.84,22.3,22.3,0,0,1,0,20.9,17.76,17.76,0,0,1-7.15,6.84,23.45,23.45,0,0,1-20.63,0,17.59,17.59,0,0,1-7.18-6.84,22.38,22.38,0,0,1,0-20.94,17.31,17.31,0,0,1,7.18-6.8,23.63,23.63,0,0,1,20.63,0Zm-15,11.32a8.62,8.62,0,0,0-1.85,5.95c0,2.65.62,4.65,1.85,6a6,6,0,0,0,4.65,2.05,5.9,5.9,0,0,0,4.59-2.08,8.76,8.76,0,0,0,1.84-6,8.62,8.62,0,0,0-1.84-5.95,6.23,6.23,0,0,0-9.24,0Z"/><path class="cls-2" d="M139.47,513.36a7.09,7.09,0,0,0-4.65,1.24,5.93,5.93,0,0,0-1.73,4.15h8.3v15H133v36.22H115V533.7h-5.83v-15H115q0-9.86,5.84-15.28T137.65,498c.79,0,2,.06,3.74.18v15.24A13.09,13.09,0,0,0,139.47,513.36Z"/><path class="cls-2" d="M172.89,521a18.44,18.44,0,0,1,9.67-2.74v19.16h-5.2q-6,0-9,2.32t-3,8.07v22.08h-18V518.75h18v9.57A23.31,23.31,0,0,1,172.89,521Z"/><path class="cls-2" d="M236.82,547.57H203q.45,8.67,7.57,8.67a7.22,7.22,0,0,0,4.38-1.28,6.44,6.44,0,0,0,2.37-3.38h19a21.74,21.74,0,0,1-4.47,9.72,24.1,24.1,0,0,1-8.75,6.8,27.16,27.16,0,0,1-11.59,2.46,28.22,28.22,0,0,1-13.54-3.15,22.26,22.26,0,0,1-9.17-9.12,31.35,31.35,0,0,1,0-28,22.23,22.23,0,0,1,9.21-9.07,30.72,30.72,0,0,1,27,0,22.18,22.18,0,0,1,9.08,8.85,26.65,26.65,0,0,1,3.24,13.32A21.86,21.86,0,0,1,236.82,547.57Zm-19.89-13.41a7.76,7.76,0,0,0-5.47-2,8.33,8.33,0,0,0-5.79,2,8.71,8.71,0,0,0-2.6,5.93h16C219.09,537.48,218.4,535.5,216.93,534.16Z"/><path class="cls-2" d="M245.17,498a11.09,11.09,0,0,1,7.66-2.6,10.76,10.76,0,0,1,7.57,2.6,8.63,8.63,0,0,1,2.83,6.62,8.17,8.17,0,0,1-2.88,6.38,10.85,10.85,0,0,1-7.52,2.56,11.17,11.17,0,0,1-7.66-2.56,8.11,8.11,0,0,1-2.92-6.38A8.47,8.47,0,0,1,245.17,498Zm16.51,20.76v51.17h-18V518.75Z"/><path class="cls-2" d="M291.9,521.44a19.83,19.83,0,0,1,10.4-2.79v13.78h-3.74q-14.15,0-14.14,13.13v24.36H271.56V519.38h12.86v9.67A21.08,21.08,0,0,1,291.9,521.44Z"/><path class="cls-2" d="M339.32,521.76a16.39,16.39,0,0,1,6.48,8.11V519.38h12.77v50.54H345.8V559.34a16.6,16.6,0,0,1-6.48,8.16,19.18,19.18,0,0,1-10.94,3.06,21.71,21.71,0,0,1-11.5-3.1,21.05,21.05,0,0,1-8-9,34.71,34.71,0,0,1,0-27.64,21,21,0,0,1,8-9,21.71,21.71,0,0,1,11.5-3.1A19.39,19.39,0,0,1,339.32,521.76Zm-16.6,12.13q-3.64,3.92-3.65,10.76t3.65,10.72a12.64,12.64,0,0,0,9.67,3.88,12.77,12.77,0,0,0,9.63-4q3.78-4,3.78-10.63T342,533.93a12.77,12.77,0,0,0-9.63-4A12.56,12.56,0,0,0,322.72,533.89Z"/><path class="cls-2" d="M418.25,519.38v50.54H405.39V559.7a16.15,16.15,0,0,1-6.62,8,19.7,19.7,0,0,1-10.63,2.87q-8.75,0-13.95-5.75t-5.2-16V519.38h12.77V547.3q0,6,3.1,9.35a10.92,10.92,0,0,0,8.39,3.33,11.47,11.47,0,0,0,8.85-3.56q3.28-3.55,3.29-10.22V519.38Z"/><path class="cls-2" d="M508.13,524.35q5.33,5.71,5.33,16.2v29.37H500.69V542q0-5.84-3-9a10.64,10.64,0,0,0-8.16-3.15,11.24,11.24,0,0,0-8.57,3.38q-3.19,3.38-3.2,9.85v26.82H465V542q0-5.84-3-9a10.68,10.68,0,0,0-8.17-3.15,11.25,11.25,0,0,0-8.57,3.38q-3.19,3.38-3.19,9.85v26.82H429.27V519.38h12.86V529a15.66,15.66,0,0,1,6.34-7.62,18.7,18.7,0,0,1,10.08-2.69,19.18,19.18,0,0,1,10.62,2.92A17.88,17.88,0,0,1,476,530a19.09,19.09,0,0,1,7.07-8.26,18.88,18.88,0,0,1,10.54-3.06Q502.79,518.65,508.13,524.35Z"/><path class="cls-2" d="M541.31,552.41v17.51H523.16V552.41Z"/></g></g></svg>