<svg xmlns="http://www.w3.org/2000/svg" viewBox="0 0 201.74 129.47">
  <defs>
    <style>
      .cls-1{fill:#1d1d1b}
    </style>
  </defs>
  <g id="Ebene_2" data-name="Ebene 2">
    <g id="Ebene_1-2" data-name="Ebene 1">
      <circle class="cls-1" cx="137.67" cy="65.39" r="64.08"/>
      <path d="M142.92 30.3q9.69 9.78 9.69 29.47v50.48h-30.94V64.82c0-6.19-1.16-10.74-3.5-13.68s-5.62-4.39-9.85-4.39a14.13 14.13 0 0 0-11.23 4.88q-4.25 4.89-4.24 14.82v43.8H61.92V64.82q0-18.07-13.35-18.07a14.33 14.33 0 0 0-11.4 4.88q-4.23 4.89-4.23 14.82v43.8H2V2h29.47v29.28a31.09 31.09 0 0 1 11.64-8.06 39.59 39.59 0 0 1 14.74-2.69A38.84 38.84 0 0 1 74.46 24a28.28 28.28 0 0 1 11.88 10.37 34.19 34.19 0 0 1 13.19-10.25A42 42 0 0 1 117 20.53q16.24 0 25.92 9.77z" fill="#fff"/>
      <path class="cls-1" d="M154.61 112.25h-34.94V64.82c0-5.69-1-9.87-3.06-12.43s-4.66-3.64-8.29-3.64a12.1 12.1 0 0 0-9.72 4.19c-2.49 2.87-3.75 7.41-3.75 13.51v45.8H59.92V64.82c0-14.41-6.48-16.07-11.35-16.07a12.31 12.31 0 0 0-9.89 4.19c-2.48 2.87-3.74 7.41-3.74 13.51v45.8H0V0h33.47v26.62a33.19 33.19 0 0 1 8.9-5.26 41.86 41.86 0 0 1 15.48-2.83 41 41 0 0 1 17.45 3.61 29.87 29.87 0 0 1 11.17 9 36.71 36.71 0 0 1 12.24-8.82A44.3 44.3 0 0 1 117 18.53c11.36 0 20.57 3.49 27.39 10.37 6.82 6.87 10.27 17.26 10.27 30.87zm-30.94-4h26.94V59.77c0-12.52-3.06-22-9.11-28.06s-14.3-9.18-24.5-9.18a40.27 40.27 0 0 0-16.6 3.41 32.31 32.31 0 0 0-12.43 9.67l-1.73 2.2-1.52-2.34a26.31 26.31 0 0 0-11.06-9.7 37 37 0 0 0-15.76-3.24 37.73 37.73 0 0 0-14 2.55A29.2 29.2 0 0 0 33 32.63l-3.48 3.82V4H4v104.25h26.94v-41.8c0-7.09 1.58-12.51 4.72-16.13a16.28 16.28 0 0 1 12.91-5.57c7 0 15.35 3.48 15.35 20.07v43.43h26.93v-41.8c0-7.09 1.59-12.51 4.73-16.13a16.09 16.09 0 0 1 12.74-5.57c4.85 0 8.69 1.73 11.42 5.15s3.93 8.21 3.93 14.92z"/>
    </g>
  </g>
</svg>
