<svg xmlns="http://www.w3.org/2000/svg" viewBox="0 0 319.67 110.04"><defs><style>.cls-1{fill:silver;}.cls-2{fill:#0058a2;}</style></defs><g id="Ebene_2" data-name="Ebene 2"><g id="Ebene_1-2" data-name="Ebene 1"><path class="cls-1" d="M201.37,70.32a231.91,231.91,0,0,0,20-14.35c4-3.26,6.19-6.34,7.25-11.22.73-3.32,2.72-12.08,3.37-15.09a18.1,18.1,0,0,1,5.58-9.76c8.08-7.71,20.2-14.63,20.2-14.63L249.71,0s-9.15,5.78-18,12.8c-6,4.77-8.14,8.33-9.59,15-.81,3.66-1.57,8.5-2.49,11.7-1.39,4.78-2.87,7.59-7,10.95-8.71,7.14-19.07,14.85-19.07,14.85Z"/><path class="cls-1" d="M218.52,81.44a142.55,142.55,0,0,0,23-13.84c5.35-4.06,6.14-7.1,6.33-12.32.12-3.6.41-11.57.33-15.65-.09-4.6,1.31-7.24,5.18-10.3,8.71-7.14,21.7-12.82,21.7-12.82l-8.84-5.74a135.54,135.54,0,0,0-20.46,12c-6,4.37-7.93,7.2-8.21,13.86,0,4.85-.38,11.54-.52,14.82-.08,5.53-1.75,8-6.72,11.76A200.1,200.1,0,0,1,210.15,76Z"/><path class="cls-1" d="M237.52,93.78a89.87,89.87,0,0,0,26.77-12.63c6.74-4.85,6.59-8.54,5.79-13-.69-3.88-3-11.74-3.88-16.68s.5-6.84,5.34-10.57c8.74-6.72,23.15-11.73,23.15-11.73l-9.8-6.25A110.86,110.86,0,0,0,261.53,35c-5.86,4.14-8.29,6.44-7.41,13.15.79,6,2.7,13.72,3.34,17.57,1.06,6.31-1,8.16-5.84,11.4-9.64,6.47-23.16,10.8-23.16,10.8Z"/><path class="cls-2" d="M306.44,36.83s-16.24,4.22-26.94,11.3c-5.73,3.79-6.32,7.73-4.94,13.17,1.18,4.65,5.29,12.71,6.78,17,1.61,4.71,2,7.57-2,10.51-11,8.16-29.74,12.78-29.74,12.78l12.93,8.4a118.32,118.32,0,0,0,19.78-7c3.08-1.41,6.21-3,9.42-4.9,9.38-5.45,9.24-11.51,6.55-19-1.7-4.7-4.46-9.55-6.3-14.61-1.23-3.36-1.06-6.27,1.25-8.35a24.93,24.93,0,0,1,5.12-3.41c9.13-4.82,21.31-7.31,21.31-7.31Z"/><path class="cls-1" d="M3.18,76.34H4.7a4.66,4.66,0,0,1,0,9.32H3.18ZM.45,87.8H4.17C8.35,87.8,12,86.4,12,81s-3.68-6.81-7.86-6.81H.45Z"/><path class="cls-1" d="M16.54,81.8a2.26,2.26,0,0,1,2.32-2.36c1.46,0,2,1.09,2.12,2.36Zm6.2,3.31a6.77,6.77,0,0,1-3.34,1,2.62,2.62,0,0,1-2.86-2.54h6.94c0-3.51-1.06-6.06-4.78-6.06-3.12,0-4.66,2.39-4.66,5.3C14,86.13,16,88,19.28,88a7,7,0,0,0,3.46-.8Z"/><path class="cls-1" d="M35.14,87.8H32.66V86.44h0A4.2,4.2,0,0,1,29.33,88c-2.38,0-3.41-1.68-3.41-3.94V77.76h2.61v5.36c0,1.23,0,2.89,1.69,2.89,1.9,0,2.31-2.05,2.31-3.34V77.76h2.61Z"/><path class="cls-1" d="M39.08,79.67H37.15V77.76h1.93v-2l2.61-.84v2.85H44v1.91H41.69v4.68c0,.86.23,1.66,1.23,1.66a2.38,2.38,0,0,0,1.19-.27l.08,2.06a6.73,6.73,0,0,1-1.93.24,3,3,0,0,1-3.18-3.26Z"/><path class="cls-1" d="M52.16,79.87a6.25,6.25,0,0,0-2.34-.43c-.7,0-1.54.25-1.54,1.11,0,1.6,4.54.58,4.54,4.21,0,2.34-2.08,3.28-4.21,3.28a11.83,11.83,0,0,1-3-.43l.15-2.15a5.76,5.76,0,0,0,2.58.67c.66,0,1.71-.26,1.71-1.23,0-2-4.54-.63-4.54-4.25,0-2.17,1.89-3.12,3.94-3.12a11.83,11.83,0,0,1,2.85.37Z"/><path class="cls-1" d="M61.76,79.92A4,4,0,0,0,60,79.55c-1.62,0-2.65,1.29-2.65,3.18S58.21,86,60,86a5.46,5.46,0,0,0,2-.47l.11,2.16a8.31,8.31,0,0,1-2.61.34c-3.29,0-4.95-2.25-4.95-5.31,0-2.9,1.71-5.2,4.85-5.2a8.33,8.33,0,0,1,2.54.33Z"/><path class="cls-1" d="M64.29,73.18H66.9v5.95h0a3.74,3.74,0,0,1,3.16-1.6c2.38,0,3.41,1.67,3.41,3.93V87.8H70.9V82.44c0-1.23,0-2.89-1.7-2.89-1.89,0-2.3,2-2.3,3.34V87.8H64.29Z"/><path class="cls-1" d="M78.45,81.8a2.27,2.27,0,0,1,2.32-2.36c1.46,0,2,1.09,2.12,2.36Zm6.2,3.31a6.77,6.77,0,0,1-3.34,1,2.62,2.62,0,0,1-2.86-2.54h6.94c0-3.51-1-6.06-4.78-6.06-3.12,0-4.66,2.39-4.66,5.3C76,86.13,77.88,88,81.2,88a7,7,0,0,0,3.45-.8Z"/><path class="cls-1" d="M87.89,77.76h2.32V80h0A3.08,3.08,0,0,1,93,77.53a3.13,3.13,0,0,1,.8.07v2.64A2.59,2.59,0,0,0,92.62,80c-2.12,0-2.12,2.65-2.12,4.1V87.8H87.89Z"/><path class="cls-1" d="M7.76,98.69A7.06,7.06,0,0,0,5,98.1,1.89,1.89,0,0,0,2.85,100c0,2.36,6,1.37,6,5.93,0,3-2.36,4.12-5.11,4.12a12.07,12.07,0,0,1-3.49-.53l.26-2.46a6.52,6.52,0,0,0,3.08.84c1,0,2.42-.53,2.42-1.75,0-2.6-6-1.52-6-6C0,97.07,2.36,96,4.76,96A10.26,10.26,0,0,1,8,96.44Z"/><path class="cls-1" d="M11.5,95.18h2.62v8.6h0l3.12-4h3.08l-3.75,4.48,4.22,5.56H17.51l-3.35-4.87h0v4.87H11.5Z"/><path class="cls-1" d="M22.74,99.76h2.61v10H22.74Zm0-4.33h2.61v2.5H22.74Z"/><path class="cls-1" d="M28.55,95.18h2.61V109.8H28.55Z"/><path class="cls-1" d="M36.15,103.8a2.28,2.28,0,0,1,2.32-2.36c1.47,0,2.05,1.09,2.13,2.36Zm6.2,3.31a6.7,6.7,0,0,1-3.33,1,2.63,2.63,0,0,1-2.87-2.54h6.94c0-3.51-1.05-6.06-4.77-6.06-3.12,0-4.66,2.39-4.66,5.3,0,3.3,1.93,5.21,5.24,5.21a6.93,6.93,0,0,0,3.45-.8Z"/><path class="cls-1" d="M45.53,95.18h2.62v5.95h0a3.74,3.74,0,0,1,3.16-1.6c2.38,0,3.42,1.67,3.42,3.93v6.34H52.14v-5.36c0-1.23,0-2.89-1.69-2.89-1.89,0-2.3,2-2.3,3.34v4.91H45.53Z"/><path class="cls-1" d="M57.9,99.76h2.32V102h0A3.08,3.08,0,0,1,63,99.53a3.13,3.13,0,0,1,.8.07v2.64a2.59,2.59,0,0,0-1.17-.22c-2.12,0-2.12,2.65-2.12,4.1v3.68H57.9Z"/><path class="cls-1" d="M67.66,103.8A2.28,2.28,0,0,1,70,101.44c1.46,0,2,1.09,2.12,2.36Zm6.21,3.31a6.77,6.77,0,0,1-3.34,1,2.63,2.63,0,0,1-2.87-2.54h7c0-3.51-1.06-6.06-4.78-6.06-3.12,0-4.66,2.39-4.66,5.3,0,3.3,1.93,5.21,5.24,5.21a7,7,0,0,0,3.46-.8Z"/><path class="cls-1" d="M77.1,99.76h2.32V102h0a3.08,3.08,0,0,1,2.75-2.51,3.13,3.13,0,0,1,.8.07v2.64a2.59,2.59,0,0,0-1.17-.22c-2.12,0-2.12,2.65-2.12,4.1v3.68H77.1Z"/><path class="cls-1" d="M83.91,99.76h2.81l2.49,7.31h0l2.42-7.31h2.61l-3.7,10h-3Z"/><path class="cls-1" d="M98.1,103.8a2.28,2.28,0,0,1,2.32-2.36c1.47,0,2,1.09,2.13,2.36Zm6.2,3.31a6.7,6.7,0,0,1-3.33,1,2.63,2.63,0,0,1-2.87-2.54h7c0-3.51-1.06-6.06-4.78-6.06-3.12,0-4.66,2.39-4.66,5.3,0,3.3,1.93,5.21,5.24,5.21a6.93,6.93,0,0,0,3.45-.8Z"/><path class="cls-1" d="M107.54,99.76h2.32V102h0a3.08,3.08,0,0,1,2.75-2.51,3.17,3.17,0,0,1,.8.07v2.64a2.59,2.59,0,0,0-1.17-.22c-2.13,0-2.13,2.65-2.13,4.1v3.68h-2.61Z"/><path class="cls-1" d="M118.09,104.75c0-1.4.66-3.2,2.34-3.2s2.17,1.86,2.17,3.2-.49,3.26-2.21,3.26S118.09,106.18,118.09,104.75Zm-2.63,5H118v-1.23h0a3.66,3.66,0,0,0,3.08,1.47c3.08,0,4.22-2.54,4.22-5.29s-1.14-5.22-4.22-5.22a3.5,3.5,0,0,0-3,1.52h0V95.18h-2.61Z"/><path class="cls-1" d="M129.62,106.9c0-1.54,1.73-1.74,2.9-1.74h1.13a3.4,3.4,0,0,1-.54,2.07,2.25,2.25,0,0,1-1.84.9C130.34,108.13,129.62,107.75,129.62,106.9Zm-1.33-4.37a5.28,5.28,0,0,1,3.1-1.09c1.54,0,2.26.54,2.26,2.16h-1.44a7.9,7.9,0,0,0-3.37.59,2.93,2.93,0,0,0-1.72,2.86c0,1.91,1.73,3,3.51,3a3.59,3.59,0,0,0,3.1-1.74h0a11.85,11.85,0,0,0,.12,1.5h2.3c-.06-.78-.1-1.48-.12-2.24s0-1.5,0-2.52v-1.28c0-3-1.27-4.23-4.33-4.23a9,9,0,0,0-3.49.76Z"/><path class="cls-1" d="M139,99.76h2.47v1.37h0a3.73,3.73,0,0,1,3.3-1.6c2.38,0,3.41,1.67,3.41,3.93v6.34h-2.61v-5.36c0-1.23,0-2.89-1.7-2.89-1.89,0-2.3,2-2.3,3.34v4.91H139Z"/><path class="cls-1" d="M153.39,104.75c0-1.34.46-3.2,2.16-3.2s2.34,1.8,2.34,3.2-.57,3.26-2.3,3.26S153.39,106.14,153.39,104.75Zm4.6,5h2.53V95.18h-2.61v5.75h0a3.56,3.56,0,0,0-3-1.4c-3.08,0-4.21,2.45-4.21,5.22s1.13,5.29,4.21,5.29a3.71,3.71,0,0,0,3.08-1.37h0Z"/></g></g></svg>